<?xml version="1.0" standalone="no"?>
<!DOCTYPE svg PUBLIC "-//W3C//DTD SVG 20010904//EN"
 "http://www.w3.org/TR/2001/REC-SVG-20010904/DTD/svg10.dtd">
<svg version="1.0" xmlns="http://www.w3.org/2000/svg"
 width="596.000000pt" height="411.000000pt" viewBox="0 0 596.000000 411.000000"
 preserveAspectRatio="xMidYMid meet">

<g transform="translate(0.000000,411.000000) scale(0.100000,-0.100000)"
fill="#000000" stroke="none">
<path d="M2845 4071 c-192 -31 -375 -136 -494 -283 -56 -69 -111 -174 -136
-260 l-16 -58 -139 0 c-128 0 -139 2 -145 19 -3 11 -13 25 -22 33 -16 12 -15
11 0 -12 9 -13 17 -28 17 -33 0 -5 -136 -8 -302 -7 -455 3 -468 2 -468 -14 0
-18 37 -39 365 -206 143 -73 265 -136 270 -140 34 -25 287 -150 295 -145 12 7
210 31 385 45 203 17 982 8 1180 -14 83 -9 167 -20 188 -25 36 -9 48 -4 218
85 99 52 185 92 190 89 5 -4 9 -1 9 4 0 6 5 11 11 11 6 0 37 15 68 34 31 18
147 80 258 137 142 73 203 109 203 121 0 9 -4 19 -8 22 -11 6 -151 7 -364 2
-98 -2 -178 -1 -178 4 0 5 19 23 43 41 23 18 50 42 59 53 10 12 18 18 18 14 0
-4 19 12 43 35 41 41 88 82 162 142 20 17 47 39 59 51 12 12 28 23 36 26 8 2
10 7 4 11 -5 3 -110 -82 -232 -189 l-221 -194 -241 0 c-209 0 -240 2 -240 15
0 9 -14 51 -30 94 -78 202 -248 371 -455 451 -99 39 -284 58 -390 41z m263
-57 c44 -9 118 -35 172 -61 83 -40 107 -58 190 -142 105 -105 145 -170 191
-306 l26 -80 484 2 484 3 -85 -45 -85 -44 -436 0 -436 -1 -21 87 c-80 321
-310 506 -632 506 -230 0 -411 -90 -523 -261 -57 -87 -91 -173 -121 -304 l-6
-28 -440 0 -440 0 -68 35 c-37 19 -74 39 -82 45 -11 7 126 10 474 8 l489 -3
14 60 c18 81 82 208 137 275 175 211 447 308 714 254z"/>
<path d="M983 4053 c31 -2 83 -2 115 0 31 2 5 3 -58 3 -63 0 -89 -1 -57 -3z"/>
<path d="M868 4043 c6 -2 18 -2 25 0 6 3 1 5 -13 5 -14 0 -19 -2 -12 -5z"/>
<path d="M1188 4043 c6 -2 18 -2 25 0 6 3 1 5 -13 5 -14 0 -19 -2 -12 -5z"/>
<path d="M818 4033 c7 -3 16 -2 19 1 4 3 -2 6 -13 5 -11 0 -14 -3 -6 -6z"/>
<path d="M640 3980 c-8 -5 -10 -10 -5 -10 6 0 17 5 25 10 8 5 11 10 5 10 -5 0
-17 -5 -25 -10z"/>
<path d="M1421 3976 c10 -9 89 -46 89 -41 0 5 -75 45 -86 45 -4 0 -5 -2 -3 -4z"/>
<path d="M497 3905 c-20 -14 -37 -28 -37 -31 0 -2 18 8 40 22 35 23 47 34 37
34 -1 0 -19 -11 -40 -25z"/>
<path d="M1550 3908 c0 -2 21 -21 48 -43 26 -21 38 -28 27 -16 -19 23 -75 66
-75 59z"/>
<path d="M373 3803 c-64 -63 -65 -64 -9 -14 91 81 91 81 84 81 -3 0 -37 -30
-75 -67z"/>
<path d="M4690 3856 c0 -2 7 -6 15 -10 8 -3 15 -1 15 4 0 6 -7 10 -15 10 -8 0
-15 -2 -15 -4z"/>
<path d="M4738 3843 c6 -2 18 -2 25 0 6 3 1 5 -13 5 -14 0 -19 -2 -12 -5z"/>
<path d="M4795 3830 c19 -8 73 -14 64 -6 -2 2 -22 6 -44 9 -28 5 -34 4 -20 -3z"/>
<path d="M4878 3813 c7 -3 16 -2 19 1 4 3 -2 6 -13 5 -11 0 -14 -3 -6 -6z"/>
<path d="M4914 3803 c4 -4 13 -8 19 -8 19 -1 188 -84 205 -101 8 -9 25 -22 38
-31 13 -8 21 -19 18 -24 -3 -5 -2 -8 3 -7 14 5 73 -45 66 -55 -3 -6 -1 -7 5
-3 5 3 13 0 15 -6 4 -9 6 -9 6 -2 2 25 -165 152 -258 198 -84 41 -137 59 -117
39z"/>
<path d="M1680 3787 c0 -2 15 -16 33 -33 l32 -29 -29 33 c-28 30 -36 37 -36
29z"/>
<path d="M274 3698 l-19 -23 23 19 c21 18 27 26 19 26 -2 0 -12 -10 -23 -22z"/>
<path d="M1775 3661 c8 -17 19 -33 25 -36 5 -3 1 10 -11 29 -25 43 -36 48 -14
7z"/>
<path d="M5054 3623 c-27 -27 -79 -74 -114 -107 -36 -32 -94 -86 -130 -120
-36 -34 -98 -91 -138 -126 -74 -65 -129 -116 -234 -217 -37 -35 -62 -52 -70
-47 -7 4 -10 3 -5 -1 4 -5 -8 -25 -27 -44 -18 -20 -37 -46 -41 -58 -6 -21 -3
-23 28 -23 72 0 147 -75 147 -146 0 -18 8 -25 38 -33 41 -11 85 -51 101 -91 8
-20 10 -21 10 -6 1 25 -81 106 -107 106 -25 0 -27 4 -36 51 l-6 36 371 344
c205 189 388 359 408 378 34 31 34 32 6 15 -16 -9 -45 -34 -63 -53 -19 -20
-38 -35 -43 -33 -5 1 -8 -4 -6 -10 1 -7 -4 -12 -11 -10 -8 1 -11 -2 -7 -8 3
-5 2 -10 -4 -10 -5 0 -29 -20 -52 -45 -23 -24 -46 -42 -52 -38 -6 3 -7 2 -4
-4 3 -5 -6 -18 -20 -29 -15 -10 -46 -39 -70 -64 -24 -24 -43 -41 -43 -37 0 4
-14 -8 -31 -27 -16 -19 -36 -34 -42 -32 -7 1 -8 1 -4 -2 13 -7 -24 -41 -38
-36 -7 3 -18 -4 -25 -15 -6 -12 -8 -21 -5 -21 3 0 -11 -15 -32 -32 -21 -18
-49 -45 -61 -60 -15 -16 -30 -25 -40 -21 -15 4 -15 3 -2 -6 11 -8 11 -11 2
-11 -7 0 -38 -27 -69 -60 -44 -46 -60 -57 -70 -48 -16 13 2 42 20 31 5 -3 7
-2 4 3 -3 6 16 30 41 54 201 190 307 286 323 294 11 5 19 12 19 16 0 4 75 76
166 161 92 85 173 160 181 168 12 12 10 18 -17 46 -16 17 -27 35 -23 40 5 4 2
5 -5 1 -8 -5 -21 0 -33 13 -11 12 -23 21 -27 21 -4 0 -30 -21 -58 -47z"/>
<path d="M200 3590 c-6 -11 -8 -20 -6 -20 3 0 10 9 16 20 6 11 8 20 6 20 -3 0
-10 -9 -16 -20z"/>
<path d="M1840 3575 c19 -19 36 -35 39 -35 3 0 -10 16 -29 35 -19 19 -36 35
-39 35 -3 0 10 -16 29 -35z"/>
<path d="M155 3509 c-9 -17 -15 -33 -13 -35 3 -2 12 12 21 31 21 43 13 47 -8
4z"/>
<path d="M5241 3414 c-13 -9 -29 -31 -37 -49 -10 -24 -21 -34 -44 -39 -17 -3
-45 -19 -61 -35 -23 -23 -29 -38 -29 -71 0 -32 -6 -46 -24 -61 -13 -10 -29
-31 -35 -46 -7 -15 -26 -35 -44 -43 -17 -8 -39 -28 -47 -45 -8 -16 -20 -34
-27 -38 -7 -4 -28 -32 -48 -61 -36 -55 -46 -111 -23 -134 9 -9 7 -16 -8 -33
-13 -15 -19 -36 -19 -73 0 -29 -8 -65 -18 -83 -19 -36 -22 -85 -6 -114 8 -15
6 -25 -10 -46 -24 -29 -26 -60 -9 -97 9 -21 8 -29 -4 -43 -24 -28 -30 -60 -17
-85 8 -15 12 -61 11 -132 -2 -88 -5 -113 -19 -129 -12 -13 -19 -39 -21 -81 -1
-33 -3 -80 -4 -103 -2 -35 3 -48 27 -73 16 -16 35 -30 42 -30 9 0 13 -15 13
-46 0 -39 5 -51 34 -80 21 -21 44 -34 60 -34 23 0 26 -3 20 -25 -15 -62 43
-135 107 -135 29 0 45 -8 72 -35 19 -19 49 -38 66 -41 l31 -6 0 -93 0 -92 57
-6 c34 -4 79 -18 112 -35 l56 -29 -3 131 -3 132 33 -4 c25 -3 43 4 76 27 23
17 42 36 42 41 0 6 18 10 40 10 32 0 48 7 78 34 32 30 37 40 37 80 0 39 3 46
19 46 34 0 85 48 96 90 6 21 9 43 8 48 -2 5 11 21 28 35 45 38 60 79 45 126
-6 21 -11 60 -11 86 0 29 -6 55 -15 65 -11 12 -16 47 -18 129 -2 61 0 114 5
117 14 9 9 77 -8 95 -13 14 -14 23 -3 57 10 36 9 45 -9 76 -17 29 -19 42 -12
62 15 39 12 76 -10 112 -15 23 -19 43 -15 65 4 22 -1 45 -14 71 -15 28 -18 44
-11 57 19 34 10 74 -25 124 -20 28 -41 55 -48 60 -7 6 -19 24 -28 40 -9 17
-32 38 -50 47 -18 9 -38 31 -45 47 -7 16 -23 37 -36 45 -19 12 -24 23 -20 45
8 54 -49 121 -102 121 -9 0 -25 18 -36 40 -11 21 -29 44 -39 50 -29 15 -73 12
-100 -6z"/>
<path d="M81 3304 c0 -11 3 -14 6 -6 3 7 2 16 -1 19 -3 4 -6 -2 -5 -13z"/>
<path d="M71 3254 c0 -11 3 -14 6 -6 3 7 2 16 -1 19 -3 4 -6 -2 -5 -13z"/>
<path d="M64 3105 c0 -55 1 -76 3 -47 2 29 2 74 0 100 -2 26 -3 2 -3 -53z"/>
<path d="M4176 3082 c-3 -5 1 -9 9 -9 8 0 12 4 9 9 -3 4 -7 8 -9 8 -2 0 -6 -4
-9 -8z"/>
<path d="M72 2950 c0 -14 2 -19 5 -12 2 6 2 18 0 25 -3 6 -5 1 -5 -13z"/>
<path d="M4300 2960 c0 -5 5 -10 11 -10 5 0 7 5 4 10 -3 6 -8 10 -11 10 -2 0
-4 -4 -4 -10z"/>
<path d="M81 2894 c0 -11 3 -14 6 -6 3 7 2 16 -1 19 -3 4 -6 -2 -5 -13z"/>
<path d="M91 2854 c0 -11 3 -14 6 -6 3 7 2 16 -1 19 -3 4 -6 -2 -5 -13z"/>
<path d="M2385 2777 c-83 -33 -136 -80 -176 -157 -20 -37 -24 -60 -24 -130 0
-76 3 -91 29 -138 33 -60 76 -101 139 -134 34 -18 58 -23 127 -23 76 0 91 3
138 29 60 33 101 76 134 139 19 34 23 58 23 127 0 73 -4 92 -27 136 -34 64
-105 128 -165 148 -54 18 -155 20 -198 3z"/>
<path d="M3333 2774 c-57 -21 -128 -86 -161 -148 -23 -44 -27 -63 -27 -136 0
-76 3 -91 30 -139 52 -93 141 -151 245 -158 119 -9 226 51 285 158 27 48 30
63 30 139 0 73 -4 92 -27 136 -34 64 -105 128 -165 148 -57 20 -154 19 -210 0z"/>
<path d="M140 2706 c0 -10 60 -126 65 -126 3 0 -9 28 -26 63 -33 65 -39 75
-39 63z"/>
<path d="M4621 2555 c-2 -48 -19 -101 -41 -120 -19 -18 -19 -18 5 -47 13 -16
27 -45 30 -66 10 -57 16 -62 10 -9 -3 27 -13 61 -23 75 -19 26 -19 28 -1 57
20 31 35 105 26 127 -3 7 -6 0 -6 -17z"/>
<path d="M288 2463 c22 -27 53 -59 68 -73 15 -14 -1 8 -36 48 -72 81 -94 98
-32 25z"/>
<path d="M399 2357 c15 -19 71 -61 71 -54 0 2 -19 19 -42 37 -24 19 -37 26
-29 17z"/>
<path d="M2905 2329 c-11 -6 -31 -25 -44 -45 -32 -46 -25 -105 18 -148 27 -26
39 -31 82 -31 46 0 54 4 85 37 26 29 34 46 34 75 0 43 -27 90 -62 109 -27 16
-85 17 -113 3z"/>
<path d="M517 2269 c7 -7 15 -10 18 -7 3 3 -2 9 -12 12 -14 6 -15 5 -6 -5z"/>
<path d="M550 2256 c0 -3 9 -10 20 -16 11 -6 20 -8 20 -6 0 3 -9 10 -20 16
-11 6 -20 8 -20 6z"/>
<path d="M4611 2249 c-1 -9 -12 -27 -25 -40 l-24 -23 25 -30 c22 -26 25 -37
21 -89 -4 -49 -1 -60 14 -68 28 -15 48 -64 48 -118 0 -60 -10 -89 -44 -126
l-26 -27 20 -25 c57 -73 23 -195 -68 -242 -37 -19 -37 -19 -37 -82 0 -35 -4
-77 -8 -94 -4 -19 -1 -15 8 10 9 23 15 61 13 90 -3 43 0 51 20 61 64 32 112
103 112 167 0 17 -10 50 -21 74 -21 44 -21 44 -1 66 33 37 42 63 42 122 0 57
-16 101 -44 124 -11 9 -16 31 -16 70 0 37 -6 66 -18 86 -18 29 -18 31 1 57 11
14 17 32 14 40 -4 9 -6 8 -6 -3z"/>
<path d="M1315 2170 c-11 -5 -14 -9 -7 -9 9 -1 10 -6 2 -20 -5 -11 -10 -44
-10 -74 0 -37 -5 -59 -16 -68 -28 -23 -44 -67 -44 -124 0 -59 9 -85 42 -122
20 -22 20 -22 -1 -66 -11 -24 -21 -57 -21 -74 0 -64 48 -135 112 -167 20 -10
23 -18 20 -59 -5 -63 12 -110 53 -146 30 -26 34 -35 36 -86 l3 -57 -160 -139
-159 -139 -12 81 c-14 87 -32 137 -30 81 1 -18 5 -32 9 -32 4 0 8 -10 7 -22 0
-13 2 -41 5 -63 2 -22 5 -46 5 -53 1 -13 58 26 107 73 42 40 146 130 155 133
5 2 23 18 41 35 20 20 33 27 36 19 2 -6 8 -12 13 -12 6 0 7 5 3 12 -4 6 -9 41
-12 77 -3 59 -7 69 -34 90 -51 41 -75 131 -48 182 9 16 5 21 -30 35 -98 39
-140 170 -80 247 19 24 19 25 -2 43 -63 56 -63 215 -1 255 16 10 19 20 15 66
-4 45 -1 60 17 84 22 30 20 34 -14 19z"/>
<path d="M778 2153 c7 -3 16 -2 19 1 4 3 -2 6 -13 5 -11 0 -14 -3 -6 -6z"/>
<path d="M1258 2153 c6 -2 18 -2 25 0 6 3 1 5 -13 5 -14 0 -19 -2 -12 -5z"/>
<path d="M818 2143 c7 -3 16 -2 19 1 4 3 -2 6 -13 5 -11 0 -14 -3 -6 -6z"/>
<path d="M1218 2143 c7 -3 16 -2 19 1 4 3 -2 6 -13 5 -11 0 -14 -3 -6 -6z"/>
<path d="M858 2133 c6 -2 18 -2 25 0 6 3 1 5 -13 5 -14 0 -19 -2 -12 -5z"/>
<path d="M1158 2133 c6 -2 18 -2 25 0 6 3 1 5 -13 5 -14 0 -19 -2 -12 -5z"/>
<path d="M968 2123 c28 -2 76 -2 105 0 28 2 5 3 -53 3 -58 0 -81 -1 -52 -3z"/>
<path d="M2593 2051 c-71 -18 -138 -73 -183 -150 -10 -17 -52 -11 -268 36 -89
20 -125 24 -133 16 -6 -6 -8 -17 -4 -24 11 -16 197 -103 298 -139 219 -76 582
-140 715 -125 240 27 451 72 612 130 100 36 275 119 285 134 4 7 2 18 -4 24
-8 8 -46 3 -138 -16 -143 -31 -229 -47 -249 -47 -7 0 -15 8 -18 18 -10 29 -83
100 -129 124 -59 31 -175 31 -233 1 -43 -23 -139 -121 -157 -160 -14 -31 -20
-29 -52 17 -37 53 -104 114 -154 139 -45 24 -139 34 -188 22z"/>
<path d="M2010 1652 c0 -15 216 -241 290 -302 14 -12 75 -69 135 -128 159
-155 267 -211 448 -234 76 -9 107 -9 182 4 173 30 294 97 429 237 44 45 91 91
105 102 61 47 311 305 311 321 0 29 -30 21 -89 -25 -323 -251 -679 -354 -1045
-301 -237 34 -454 130 -678 301 -60 46 -88 54 -88 25z"/>
<path d="M598 1333 c23 -2 61 -2 85 0 23 2 4 4 -43 4 -47 0 -66 -2 -42 -4z"/>
<path d="M466 1309 c-117 -48 -240 -164 -327 -310 -41 -69 -48 -89 -24 -69 8
7 13 15 11 19 -7 10 59 112 67 105 4 -4 7 0 7 8 0 44 189 218 228 210 6 -2 12
2 12 7 0 5 24 19 53 30 28 11 45 20 37 20 -8 0 -37 -9 -64 -20z"/>
<path d="M755 1320 c11 -5 27 -9 35 -9 9 0 8 4 -5 9 -11 5 -27 9 -35 9 -9 0
-8 -4 5 -9z"/>
<path d="M810 1300 c0 -5 9 -10 19 -10 11 0 26 -7 34 -15 8 -8 17 -11 21 -8 3
4 6 1 6 -6 0 -7 4 -10 9 -7 5 3 12 -1 15 -10 3 -8 10 -12 16 -9 20 13 180
-172 180 -208 0 -6 3 -8 6 -4 12 11 -52 112 -104 164 -30 30 -82 68 -122 88
-76 38 -80 40 -80 25z"/>
<path d="M4590 1206 c0 -2 8 -10 18 -17 15 -13 16 -12 3 4 -13 16 -21 21 -21
13z"/>
<path d="M4675 1130 c21 -22 41 -40 44 -40 3 0 -13 18 -34 40 -21 22 -41 40
-44 40 -3 0 13 -18 34 -40z"/>
<path d="M5088 1073 c7 -3 16 -2 19 1 4 3 -2 6 -13 5 -11 0 -14 -3 -6 -6z"/>
<path d="M4954 998 l-29 -33 33 29 c30 28 37 36 29 36 -2 0 -16 -15 -33 -32z"/>
<path d="M5440 986 c0 -2 8 -10 18 -17 15 -13 16 -12 3 4 -13 16 -21 21 -21
13z"/>
<path d="M4270 943 c0 -63 -62 -163 -112 -178 -11 -4 -17 -9 -15 -12 10 -9 67
28 91 59 28 39 59 135 45 143 -5 4 -9 -2 -9 -12z"/>
<path d="M5510 925 c19 -19 36 -35 39 -35 3 0 -10 16 -29 35 -19 19 -36 35
-39 35 -3 0 10 -16 29 -35z"/>
<path d="M4899 933 c-13 -16 -12 -17 4 -4 9 7 17 15 17 17 0 8 -8 3 -21 -13z"/>
<path d="M86 895 c-9 -26 -7 -32 5 -12 6 10 9 21 6 23 -2 3 -7 -2 -11 -11z"/>
<path d="M4380 875 c13 -14 26 -25 28 -25 3 0 -5 11 -18 25 -13 14 -26 25 -28
25 -3 0 5 -11 18 -25z"/>
<path d="M66 838 c-11 -41 -19 -185 -10 -191 5 -3 8 18 7 47 0 28 3 76 9 105
9 54 6 80 -6 39z"/>
<path d="M1660 841 c0 -6 4 -13 10 -16 6 -3 7 1 4 9 -7 18 -14 21 -14 7z"/>
<path d="M5597 805 c9 -19 18 -33 21 -31 4 5 -26 66 -33 66 -3 0 3 -16 12 -35z"/>
<path d="M4447 775 c9 -19 18 -33 21 -31 4 5 -26 66 -33 66 -3 0 3 -16 12 -35z"/>
<path d="M4817 803 c-4 -3 -7 -11 -7 -17 0 -6 5 -5 12 2 6 6 9 14 7 17 -3 3
-9 2 -12 -2z"/>
<path d="M4021 695 c1 -59 1 -60 10 -20 5 21 7 45 5 52 -4 8 11 13 47 15 l52
3 -58 5 -57 5 1 -60z"/>
<path d="M1878 743 c0 -5 -2 -12 -3 -18 -2 -5 -3 -16 -4 -23 0 -7 -6 -10 -13
-6 -6 4 -8 3 -5 -3 8 -13 -143 -154 -156 -146 -6 3 -7 1 -4 -4 4 -6 -26 -40
-66 -74 -39 -35 -83 -75 -97 -89 -14 -14 -67 -63 -118 -110 l-93 -85 33 -5
c18 -3 76 -4 130 -2 l97 3 98 94 c74 71 103 93 118 89 14 -4 16 -3 7 4 -9 6 4
24 52 68 89 82 91 83 106 74 16 -10 4 -30 -17 -30 -9 0 -14 -3 -11 -6 3 -3
-13 -23 -35 -44 -23 -21 -62 -57 -86 -79 -25 -23 -51 -39 -57 -37 -8 3 -11 -1
-8 -8 6 -16 -95 -108 -109 -99 -6 3 -7 2 -4 -4 4 -5 -6 -22 -22 -37 l-28 -27
-377 2 c-207 1 -380 -1 -383 -5 -3 -3 167 -6 378 -6 l384 0 120 111 c66 61
157 144 202 185 l81 75 37 -16 c45 -18 114 -20 151 -3 23 11 28 10 32 -2 7
-21 97 -110 111 -110 7 0 -7 15 -30 33 -23 17 -51 49 -61 69 l-19 36 -34 -14
c-129 -54 -272 49 -278 201 -1 30 -5 55 -9 55 -5 0 -9 -3 -10 -7z"/>
<path d="M5641 694 c0 -11 3 -14 6 -6 3 7 2 16 -1 19 -3 4 -6 -2 -5 -13z"/>
<path d="M5652 650 c0 -14 2 -19 5 -12 2 6 2 18 0 25 -3 6 -5 1 -5 -13z"/>
<path d="M61 620 c-2 -35 63 -199 75 -187 2 2 -7 24 -21 50 -14 25 -27 59 -28
76 -1 17 -5 31 -9 31 -4 0 -9 10 -11 23 -2 12 -5 15 -6 7z"/>
<path d="M4001 603 c-39 -95 -164 -147 -257 -108 -32 13 -35 13 -41 -3 -11
-31 -55 -83 -87 -103 -17 -10 -25 -19 -17 -19 16 0 106 87 113 109 3 12 10 12
38 3 69 -24 131 -13 197 36 37 27 77 86 71 104 -2 6 -10 -2 -17 -19z"/>
<path d="M5663 555 c0 -33 2 -45 4 -27 2 18 2 45 0 60 -2 15 -4 0 -4 -33z"/>
<path d="M5652 460 c0 -14 2 -19 5 -12 2 6 2 18 0 25 -3 6 -5 1 -5 -13z"/>
<path d="M5641 414 c0 -11 3 -14 6 -6 3 7 2 16 -1 19 -3 4 -6 -2 -5 -13z"/>
<path d="M150 400 c7 -14 52 -63 99 -110 84 -82 169 -142 221 -154 18 -4 15
-1 -10 11 -19 10 -37 20 -40 23 -3 3 -21 13 -41 23 -39 20 -170 134 -167 145
1 4 -15 25 -36 47 -28 29 -35 33 -26 15z"/>
<path d="M2445 389 c-34 -21 -29 -25 9 -8 23 11 29 8 64 -28 53 -55 115 -72
176 -49 25 9 50 24 56 32 18 21 25 18 78 -35 83 -83 181 -83 264 0 53 53 60
56 78 35 6 -8 31 -23 56 -32 60 -23 123 -6 176 49 l38 39 40 -16 c22 -9 55
-15 73 -15 26 1 23 3 -16 9 -27 5 -60 16 -74 25 -25 17 -26 16 -55 -19 -39
-48 -77 -66 -135 -66 -50 0 -109 27 -119 55 -8 21 -21 19 -29 -4 -16 -52 -103
-111 -165 -111 -60 0 -149 60 -165 111 -7 19 -25 27 -25 9 0 -5 -17 -21 -37
-35 -72 -48 -170 -29 -224 44 -26 36 -25 36 -64 10z"/>
<path d="M2358 363 c12 -2 30 -2 40 0 9 3 -1 5 -23 4 -22 0 -30 -2 -17 -4z"/>
<path d="M4640 300 c6 -11 13 -20 16 -20 2 0 0 9 -6 20 -6 11 -13 20 -16 20
-2 0 0 -9 6 -20z"/>
<path d="M4680 236 c0 -2 8 -10 18 -17 15 -13 16 -12 3 4 -13 16 -21 21 -21
13z"/>
<path d="M5529 213 l-24 -28 28 24 c25 23 32 31 24 31 -2 0 -14 -12 -28 -27z"/>
<path d="M4745 160 c10 -11 20 -20 23 -20 3 0 -3 9 -13 20 -10 11 -20 20 -23
20 -3 0 3 -9 13 -20z"/>
<path d="M5459 143 l-24 -28 28 24 c25 23 32 31 24 31 -2 0 -14 -12 -28 -27z"/>
<path d="M515 130 c-16 -7 -17 -9 -3 -9 9 -1 20 4 23 9 7 11 7 11 -20 0z"/>
<path d="M770 129 c0 -5 9 -9 20 -9 11 0 20 2 20 4 0 2 -9 6 -20 9 -11 3 -20
1 -20 -4z"/>
<path d="M553 113 c9 -2 23 -2 30 0 6 3 -1 5 -18 5 -16 0 -22 -2 -12 -5z"/>
<path d="M713 113 c9 -2 23 -2 30 0 6 3 -1 5 -18 5 -16 0 -22 -2 -12 -5z"/>
<path d="M5300 50 c-8 -5 -10 -10 -5 -10 6 0 17 5 25 10 8 5 11 10 5 10 -5 0
-17 -5 -25 -10z"/>
<path d="M5063 13 c26 -2 68 -2 95 0 26 2 4 3 -48 3 -52 0 -74 -1 -47 -3z"/>
</g>
</svg>
