<?xml version="1.0" standalone="no"?>
<!DOCTYPE svg PUBLIC "-//W3C//DTD SVG 20010904//EN"
 "http://www.w3.org/TR/2001/REC-SVG-20010904/DTD/svg10.dtd">
<svg version="1.0" xmlns="http://www.w3.org/2000/svg"
 width="300.000000pt" height="216.000000pt" viewBox="0 0 300.000000 216.000000"
 preserveAspectRatio="xMidYMid meet">

<g transform="translate(0.000000,216.000000) scale(0.100000,-0.100000)"
fill="#000000" stroke="none">
<path d="M1303 2125 c-30 -30 -35 -40 -29 -67 9 -46 42 -76 102 -94 29 -8 57
-21 63 -27 5 -7 11 -48 13 -92 l3 -79 48 -1 47 -1 0 82 c0 92 1 94 77 118 56
19 103 63 103 97 0 32 -26 74 -55 87 -49 22 -76 15 -121 -33 -23 -25 -47 -45
-55 -45 -7 0 -32 20 -55 45 -53 59 -90 61 -141 10z"/>
<path d="M413 1996 c-53 -24 -62 -62 -38 -159 10 -38 -9 -57 -57 -57 -80 0
-127 -91 -78 -153 40 -51 103 -44 172 18 21 19 45 35 53 35 8 0 47 -20 87 -45
40 -25 76 -45 80 -45 11 0 58 72 53 80 -3 4 -35 26 -73 48 -97 58 -98 60 -78
132 15 51 15 63 3 92 -24 58 -69 78 -124 54z"/>
<path d="M700 2008 c0 -3 12 -32 27 -64 21 -46 27 -74 26 -124 -1 -121 -56
-216 -196 -336 -85 -73 -166 -175 -209 -261 -29 -59 -33 -78 -33 -145 0 -62 4
-82 21 -105 70 -95 253 -143 411 -110 78 17 206 73 306 134 61 37 62 38 32 43
-21 4 -31 12 -33 27 -3 21 2 28 57 71 l24 19 -41 41 c-45 45 -55 88 -27 112 9
7 13 15 11 18 -3 2 -42 -28 -88 -68 -120 -106 -223 -146 -315 -121 -91 25
-121 83 -84 165 11 26 57 93 102 149 45 56 96 131 113 167 67 144 40 268 -82
374 -12 11 -22 17 -22 14z"/>
<path d="M2254 1968 c-75 -82 -89 -114 -89 -203 0 -99 20 -140 141 -302 101
-135 124 -177 124 -224 0 -80 -107 -125 -224 -94 -75 20 -102 37 -202 124 -43
39 -81 66 -83 60 -1 -6 4 -18 13 -28 25 -27 19 -48 -26 -97 l-42 -45 42 -38
c23 -21 42 -43 42 -49 0 -18 -29 -34 -50 -27 -35 11 -22 -2 43 -43 86 -54 169
-95 252 -123 89 -30 231 -33 317 -6 120 37 195 127 183 221 -16 126 -72 215
-249 390 -157 155 -189 208 -194 322 -3 58 0 82 22 134 14 35 24 65 22 67 -2
2 -21 -16 -42 -39z"/>
<path d="M2503 1990 c-38 -23 -48 -54 -38 -118 15 -96 17 -92 -73 -151 l-82
-54 19 -31 c33 -52 41 -52 119 -2 40 25 78 46 86 46 8 0 34 -16 57 -36 73 -61
118 -67 167 -22 53 50 7 158 -68 158 -68 0 -83 27 -54 95 19 47 5 88 -40 116
-39 24 -53 24 -93 -1z"/>
<path d="M1388 1725 c-136 -44 -266 -214 -281 -367 -2 -24 -12 -44 -27 -56
-22 -18 -23 -22 -11 -50 7 -17 28 -43 46 -56 41 -31 37 -57 -11 -87 -45 -28
-46 -54 -1 -45 95 18 117 19 123 3 3 -9 -4 -29 -15 -46 -24 -33 -27 -59 -7
-67 7 -3 62 14 122 37 149 58 213 59 334 6 129 -56 184 -46 130 23 -23 30 -26
56 -6 63 8 3 40 -1 73 -8 32 -8 62 -10 66 -6 5 5 -10 23 -32 40 -23 18 -41 38
-41 45 0 6 20 32 45 56 59 58 59 62 -10 115 -13 10 -15 13 -4 9 15 -5 15 1 7
48 -23 130 -123 268 -235 323 -71 35 -190 44 -265 20z m180 -408 c9 -8 75 -27
145 -41 71 -14 133 -28 138 -31 18 -12 -2 -24 -30 -19 -17 4 -41 -1 -59 -10
-68 -35 -186 -6 -216 53 -17 32 -21 78 -8 108 5 14 8 11 10 -13 2 -18 11 -39
20 -47z m-133 -67 c-36 -38 -119 -63 -163 -51 -19 6 -40 15 -48 22 -8 7 -29 9
-49 6 -25 -4 -35 -2 -35 7 0 8 46 22 132 40 72 15 140 32 150 37 10 6 22 24
26 42 6 28 7 26 10 -22 3 -47 0 -57 -23 -81z m103 -60 c30 -45 30 -80 -2 -80
-13 0 -26 5 -28 11 -3 8 -10 8 -26 -2 -47 -29 -55 29 -11 85 25 32 37 30 67
-14z"/>
<path d="M834 1629 c-3 -6 -2 -15 3 -20 20 -20 256 -158 263 -154 8 5 34 96
44 153 l6 32 -155 0 c-100 0 -156 -4 -161 -11z"/>
<path d="M1860 1619 c0 -31 30 -158 39 -164 13 -7 266 151 269 169 3 14 -14
16 -152 16 -151 0 -156 -1 -156 -21z"/>
<path d="M791 1549 c-13 -22 -19 -44 -15 -49 16 -14 256 -160 263 -160 15 0
51 47 51 66 0 14 -37 42 -134 102 -73 45 -135 82 -138 82 -2 0 -15 -18 -27
-41z"/>
<path d="M2043 1507 c-80 -50 -132 -88 -133 -98 0 -19 37 -69 51 -69 6 0 70
37 144 82 l133 83 -24 40 c-13 22 -27 41 -31 42 -4 1 -67 -35 -140 -80z"/>
<path d="M777 1408 c-6 -44 -32 -160 -53 -230 -4 -15 1 -18 33 -18 52 0 126
37 201 100 49 42 60 56 50 65 -16 14 -213 135 -220 135 -3 0 -8 -24 -11 -52z"/>
<path d="M2099 1392 c-59 -37 -106 -71 -106 -77 2 -17 110 -104 161 -130 28
-14 67 -25 89 -25 36 0 39 2 33 23 -11 41 -45 202 -51 240 -3 20 -9 37 -13 37
-4 0 -55 -31 -113 -68z"/>
<path d="M55 1298 c-65 -37 -65 -123 1 -173 43 -33 43 -57 0 -90 -59 -45 -68
-114 -20 -157 31 -27 90 -27 123 0 12 9 32 46 44 82 21 61 24 65 55 68 31 3
32 4 32 53 0 45 -2 49 -24 49 -32 0 -53 21 -61 62 -20 92 -89 141 -150 106z"/>
<path d="M2865 1298 c-29 -17 -42 -37 -61 -93 -18 -56 -36 -75 -72 -75 -18 0
-23 -4 -18 -16 3 -9 6 -31 6 -50 0 -29 3 -34 24 -34 30 0 39 -12 60 -76 26
-80 76 -113 137 -92 33 11 59 53 59 94 0 19 -13 39 -45 68 -25 23 -45 48 -45
56 0 8 20 33 45 56 31 28 45 49 45 67 0 77 -75 129 -135 95z"/>
<path d="M1790 1055 c0 -18 21 -28 47 -23 14 3 11 8 -14 21 -29 15 -33 16 -33
2z"/>
<path d="M1173 1053 c-7 -2 -13 -9 -13 -15 0 -14 43 -6 48 10 4 12 -12 15 -35
5z"/>
<path d="M1413 1010 c-21 -9 -23 -16 -23 -81 l0 -71 31 6 c17 3 40 6 50 6 17
0 19 8 19 75 l0 75 -27 -1 c-16 0 -38 -4 -50 -9z"/>
<path d="M1510 945 c0 -65 2 -75 18 -75 9 0 34 -3 55 -6 l37 -7 0 72 c0 68 -1
72 -26 81 -14 6 -39 10 -55 10 l-29 0 0 -75z"/>
<path d="M1650 921 l0 -69 45 -15 45 -16 0 63 0 62 -45 22 -45 22 0 -69z"/>
<path d="M1304 963 c-29 -14 -32 -21 -38 -76 -3 -33 -4 -62 -3 -64 2 -2 25 5
50 14 l47 17 0 63 c0 69 -4 72 -56 46z"/>
<path d="M826 759 c-187 -115 -348 -209 -359 -209 -10 0 -39 18 -64 40 -38 33
-53 40 -89 40 -35 0 -47 -5 -68 -31 -15 -17 -26 -43 -26 -59 0 -40 44 -90 80
-90 16 0 41 -5 55 -10 25 -9 27 -14 21 -48 -20 -112 -20 -110 12 -142 39 -38
87 -41 125 -6 36 33 42 65 23 131 -10 31 -13 62 -9 70 9 15 87 65 476 302 204
125 237 148 237 169 0 19 -5 24 -26 24 -15 0 -32 6 -38 14 -9 12 -70 -22 -350
-195z"/>
<path d="M1820 955 c-7 -8 -21 -15 -31 -15 -14 0 -19 -7 -19 -27 1 -25 16 -37
148 -117 399 -242 551 -338 556 -352 3 -8 0 -40 -8 -72 -16 -73 -6 -116 34
-137 42 -22 74 -19 110 12 30 24 31 30 26 72 -16 115 -16 114 34 123 59 10 85
25 99 55 31 69 -8 133 -82 133 -37 0 -51 -6 -90 -40 -25 -22 -53 -40 -63 -40
-17 0 -51 20 -424 250 -113 69 -221 136 -241 148 -32 19 -38 20 -49 7z"/>
<path d="M872 879 c-87 -38 -162 -52 -256 -46 -89 6 -90 6 -125 -25 -38 -33
-112 -69 -182 -88 l-44 -12 33 -29 c18 -16 41 -29 52 -29 10 0 40 -18 65 -40
25 -22 49 -40 53 -40 4 0 104 60 222 133 158 98 219 140 233 165 22 38 13 40
-51 11z"/>
<path d="M2070 894 c0 -33 55 -76 248 -194 117 -72 216 -130 221 -130 4 0 18
12 32 26 13 15 44 36 69 47 76 33 110 77 60 77 -33 0 -124 40 -175 77 l-49 36
-116 2 c-100 1 -124 5 -185 29 -93 37 -105 40 -105 30z"/>
<path d="M1390 763 l0 -78 50 3 50 4 0 74 0 74 -50 0 -50 0 0 -77z"/>
<path d="M1510 766 l0 -76 39 0 c22 0 47 -3 56 -6 14 -6 16 3 13 72 l-3 79
-52 3 -53 3 0 -75z"/>
<path d="M1340 822 c-8 -2 -30 -11 -47 -19 -32 -15 -33 -17 -33 -75 l0 -60 48
7 c26 4 48 8 50 10 2 1 2 34 0 72 -2 57 -6 69 -18 65z"/>
<path d="M1650 756 l0 -73 31 -7 c70 -14 72 -12 66 50 -7 65 -8 67 -59 89
l-38 15 0 -74z"/>
<path d="M1385 660 c-97 -7 -135 -21 -135 -48 0 -9 -9 -31 -20 -49 l-19 -32
84 -61 c46 -34 86 -68 89 -76 7 -18 36 -17 60 1 26 20 77 19 120 -2 l35 -16
43 39 c35 33 67 56 145 109 5 3 -42 110 -52 117 -8 6 -73 13 -210 22 -27 1
-90 0 -140 -4z"/>
<path d="M1468 379 c-14 -8 -18 -24 -18 -78 0 -78 -5 -85 -77 -106 -51 -15
-86 -44 -97 -82 -10 -32 18 -91 49 -103 51 -20 77 -12 121 35 23 25 46 45 52
45 6 0 32 -21 57 -46 43 -44 48 -46 88 -41 117 16 111 157 -7 188 -78 20 -86
31 -86 109 0 58 -3 71 -19 80 -24 12 -41 12 -63 -1z"/>
</g>
</svg>
