<?xml version="1.0" standalone="no"?>
<!DOCTYPE svg PUBLIC "-//W3C//DTD SVG 20010904//EN"
 "http://www.w3.org/TR/2001/REC-SVG-20010904/DTD/svg10.dtd">
<svg version="1.0" xmlns="http://www.w3.org/2000/svg"
 width="600.000000pt" height="596.000000pt" viewBox="0 0 600.000000 596.000000"
 preserveAspectRatio="xMidYMid meet">

<g transform="translate(0.000000,596.000000) scale(0.100000,-0.100000)"
fill="#000000" stroke="none">
<path d="M126 5916 c-60 -144 -89 -367 -89 -701 0 -437 43 -744 130 -934 144
-317 561 -737 1258 -1268 l130 -100 13 -64 c8 -35 24 -111 37 -169 21 -97 21
-107 7 -145 -21 -56 -20 -216 2 -275 34 -92 56 -113 190 -185 107 -56 126 -70
126 -90 0 -20 -37 -47 -248 -178 -136 -84 -286 -177 -333 -205 l-87 -50 -58
49 c-75 64 -179 133 -223 148 -57 19 -148 14 -191 -10 -97 -55 -116 -220 -35
-308 l33 -36 7 30 c11 49 24 75 41 82 23 8 86 -26 163 -89 61 -49 62 -51 44
-68 -10 -9 -169 -124 -353 -256 -335 -238 -335 -238 -383 -235 -56 2 -104 -11
-166 -47 l-44 -26 26 -22 26 -22 -30 -12 c-42 -18 -94 -83 -109 -135 -57 -204
193 -361 350 -219 37 34 38 34 44 12 3 -13 6 -33 6 -45 0 -13 4 -23 9 -23 20
0 86 88 117 155 l34 73 382 221 c210 122 387 220 393 218 17 -7 93 -149 106
-199 16 -60 5 -75 -67 -84 -62 -7 -68 -20 -31 -74 31 -47 77 -71 145 -77 167
-15 251 83 209 244 -15 59 -65 196 -100 274 l-16 37 192 110 c122 70 194 105
198 98 4 -6 10 -146 13 -311 13 -558 28 -674 102 -816 44 -84 105 -140 181
-169 54 -20 70 -20 732 -18 670 3 676 3 723 25 69 31 114 70 158 136 83 123
118 271 125 532 13 484 18 625 21 625 3 0 88 -48 190 -106 109 -63 183 -111
180 -118 -33 -71 -99 -245 -112 -295 -26 -105 -1 -191 67 -227 43 -22 134 -29
187 -15 54 15 110 66 118 107 l6 31 -55 7 c-74 10 -83 21 -63 88 18 60 92 198
106 198 5 0 185 -102 399 -226 l391 -226 34 -72 c19 -39 53 -91 75 -116 l39
-45 8 43 c3 23 8 42 10 42 2 0 23 -13 46 -30 176 -123 408 70 319 265 -17 38
-72 96 -103 108 -9 4 -5 13 16 31 l30 25 -75 36 c-67 33 -80 36 -134 31 l-60
-5 -359 256 -360 256 40 34 c56 50 154 113 174 113 25 0 47 -30 56 -74 l7 -40
33 36 c81 89 64 251 -32 305 -51 30 -150 31 -211 3 -57 -25 -147 -87 -210
-144 l-52 -47 -191 116 c-161 98 -467 289 -478 300 -15 13 35 51 135 103 131
67 162 94 194 167 29 66 37 209 16 278 -15 45 -14 57 8 170 13 67 27 147 30
178 4 31 10 60 13 66 4 5 54 45 112 88 581 438 1028 869 1198 1158 67 113 101
202 128 337 68 341 82 879 29 1180 -17 100 -65 260 -77 260 -4 0 -8 -6 -8 -13
0 -23 -126 -268 -212 -412 -270 -452 -649 -943 -1094 -1417 l-82 -88 -22 98
c-177 769 -711 1159 -1550 1129 -593 -21 -992 -249 -1215 -696 -44 -88 -108
-278 -130 -381 -8 -41 -17 -86 -20 -99 l-6 -24 -26 24 c-14 13 -89 94 -166
179 -477 527 -891 1102 -1102 1529 -34 69 -66 137 -72 151 -10 25 -10 25 -27
-14z m264 -556 c40 -63 101 -156 136 -207 l64 -92 4 -238 c5 -294 22 -392 91
-528 102 -203 335 -463 691 -773 l122 -106 6 -95 c4 -53 14 -143 22 -200 7
-57 12 -106 10 -108 -4 -5 -347 261 -470 365 -278 233 -515 465 -654 640 -193
242 -244 371 -289 727 -26 203 -26 732 0 894 10 63 21 119 24 123 2 5 42 -58
87 -139 46 -81 116 -200 156 -263z m5484 306 c9 -58 21 -180 26 -272 20 -331
-26 -833 -95 -1024 -108 -302 -523 -735 -1219 -1270 l-109 -84 6 54 c4 30 10
120 14 199 l6 143 36 33 c20 17 79 69 131 115 161 141 431 419 518 535 102
135 166 260 193 380 16 73 21 137 26 335 l5 245 96 145 c117 176 238 376 295
487 23 46 45 83 48 83 4 0 14 -47 23 -104z m-2994 -490 c0 -21 -35 -245 -65
-411 -51 -283 -147 -717 -231 -1045 -55 -211 -50 -200 -92 -200 -198 0 -461
-228 -542 -471 -37 -110 -23 -295 31 -401 28 -54 112 -134 158 -149 64 -21 71
-27 61 -52 -5 -12 -42 -112 -81 -222 -39 -110 -72 -201 -74 -203 -1 -1 -75 36
-164 84 -169 91 -184 105 -211 187 -16 51 -14 161 3 219 8 26 53 105 100 175
46 71 92 148 101 173 14 37 17 95 19 338 l2 292 -32 0 -33 0 0 -280 c0 -254
-2 -285 -20 -332 -18 -49 -129 -222 -137 -214 -7 7 -61 292 -77 401 -34 243
-40 319 -40 540 -1 302 29 521 101 734 168 503 530 780 1099 840 118 12 124
12 124 -3z m432 -17 c557 -93 918 -441 1058 -1022 57 -236 65 -322 65 -662 -1
-261 -4 -336 -23 -475 -26 -195 -52 -340 -61 -340 -13 0 -125 184 -142 233
-16 45 -18 89 -19 325 l0 272 -31 0 -30 0 3 -302 c4 -349 -2 -324 113 -492
103 -151 120 -193 119 -301 0 -72 -5 -99 -23 -137 -29 -60 -33 -63 -181 -143
-303 -164 -436 -284 -458 -417 -6 -36 -12 -43 -45 -54 -69 -24 -221 -32 -657
-33 -413 -1 -562 6 -636 30 -27 8 -33 16 -38 51 -4 23 -19 63 -33 90 -25 45
-109 134 -162 170 l-23 17 88 246 88 247 58 -6 c71 -6 190 21 257 61 60 35
147 125 190 197 19 31 49 100 67 154 29 82 34 111 34 188 0 99 -24 214 -60
284 -32 62 -98 123 -164 150 -48 20 -57 28 -53 45 3 11 34 137 70 280 112 442
233 1035 262 1285 12 100 1 93 134 86 64 -4 168 -16 233 -27z m-1228 -3253
c33 -24 71 -55 84 -69 22 -23 23 -28 13 -83 -21 -110 -33 -513 -28 -864 9
-507 38 -660 129 -660 32 0 81 43 93 81 4 13 13 18 23 15 19 -5 187 -23 342
-35 219 -18 621 -5 858 27 57 8 68 7 76 -6 19 -33 56 -62 79 -62 90 0 121 189
121 740 0 410 -17 631 -60 777 -5 17 4 31 40 66 61 60 146 120 146 104 0 -7
-4 -48 -9 -92 -6 -44 -15 -282 -21 -530 -6 -247 -13 -520 -15 -606 -9 -345
-78 -532 -226 -614 l-54 -30 -680 0 -680 0 -41 22 c-82 44 -139 133 -176 272
-22 86 -28 190 -53 970 -9 271 -20 516 -25 543 -12 59 -12 78 -4 78 4 0 34
-20 68 -44z m-1089 -236 c251 -132 502 -453 620 -791 57 -164 48 -236 -32
-258 -48 -14 -68 -14 -115 0 -44 12 -49 24 -13 33 96 24 86 142 -26 326 -98
162 -214 316 -314 415 -153 152 -259 204 -324 158 l-24 -16 5 52 c11 109 105
143 223 81z m4184 16 c34 -18 51 -54 51 -108 0 -39 -1 -40 -18 -25 -56 50
-174 -6 -321 -153 -139 -138 -347 -438 -391 -564 -29 -81 -26 -121 9 -157 16
-16 37 -29 45 -29 32 0 15 -19 -26 -30 -56 -16 -125 -4 -154 25 -34 34 -32
102 7 218 106 313 317 602 564 770 97 66 174 83 234 53z m-3199 -180 l0 -103
-205 -116 c-113 -65 -208 -117 -212 -117 -5 1 -27 32 -49 69 l-41 69 246 154
c135 85 249 153 254 151 4 -3 7 -50 7 -107z m2328 -60 l222 -139 -20 -31 c-11
-17 -30 -48 -42 -68 -12 -21 -25 -38 -29 -38 -4 0 -97 51 -206 113 -165 94
-198 117 -197 135 0 12 1 60 2 107 l2 86 23 -13 c13 -7 123 -76 245 -152z
m-628 5 c0 -115 -2 -130 -17 -135 -19 -6 -120 -20 -210 -31 l-53 -6 0 134 0
134 93 7 c50 4 108 11 127 16 19 4 41 8 48 9 9 1 12 -31 12 -128z m-1162 102
l102 -6 0 -132 0 -132 -52 5 c-29 2 -84 10 -123 16 l-70 11 -3 129 -3 128 23
-6 c13 -4 69 -9 126 -13z m820 -139 c3 -156 17 -144 -165 -144 l-123 0 0 135
0 134 118 4 c64 2 128 3 142 3 l25 -1 3 -131z m-348 -9 l0 -135 -109 0 c-59 0
-129 3 -155 6 l-46 7 0 128 0 129 155 0 155 0 0 -135z m-2633 -631 c12 -7 49
-55 83 -105 66 -99 68 -111 32 -186 l-15 -32 -39 79 c-28 55 -64 105 -120 164
-50 54 -75 88 -66 90 7 3 20 7 28 10 21 7 71 -3 97 -20z m5432 10 c10 -3 -10
-30 -61 -82 -81 -82 -117 -134 -147 -210 l-19 -47 -16 38 c-34 79 -33 91 23
176 87 131 127 154 220 125z m-3276 -105 l107 -12 0 -138 0 -139 -27 0 c-30 0
-149 16 -195 26 l-28 6 0 139 c0 129 1 140 18 135 9 -2 65 -10 125 -17z m1167
-119 l0 -139 -32 -6 c-104 -17 -168 -25 -205 -25 l-43 0 0 138 0 138 128 16
c70 8 133 16 140 17 9 1 12 -33 12 -139z m-3421 85 c52 -57 101 -133 101 -158
0 -30 -72 -97 -106 -99 -107 -5 -165 33 -185 120 -14 64 25 142 85 168 48 21
61 17 105 -31z m5584 31 c79 -32 114 -121 79 -199 -45 -101 -169 -122 -249
-42 l-34 34 25 50 c21 41 129 171 142 171 3 0 19 -6 37 -14z m-2910 -26 l57 0
0 -142 0 -141 -132 6 c-73 4 -143 7 -155 7 -23 0 -23 1 -23 141 l0 142 98 -6
c53 -4 123 -7 155 -7z m407 -129 c0 -106 -3 -141 -12 -141 -7 0 -73 -3 -145
-7 l-133 -6 0 141 0 141 88 3 c48 2 113 4 145 6 l57 3 0 -140z"/>
<path d="M3373 3516 c-163 -53 -252 -210 -253 -445 0 -77 5 -108 31 -185 73
-220 211 -365 388 -406 73 -17 220 -8 294 18 171 61 254 207 245 432 -3 88 -7
103 -44 180 -80 166 -208 301 -352 373 -77 38 -91 41 -175 44 -58 2 -107 -2
-134 -11z"/>
<path d="M2955 2342 c-77 -48 -175 -206 -175 -283 0 -69 86 -104 144 -58 18
14 33 45 52 105 22 74 28 85 46 82 16 -2 30 -23 54 -83 33 -79 79 -135 110
-135 28 0 56 21 69 54 36 86 -69 288 -168 325 -43 16 -98 13 -132 -7z"/>
</g>
</svg>
