<?xml version="1.0" standalone="no"?>
<!DOCTYPE svg PUBLIC "-//W3C//DTD SVG 20010904//EN"
 "http://www.w3.org/TR/2001/REC-SVG-20010904/DTD/svg10.dtd">
<svg version="1.0" xmlns="http://www.w3.org/2000/svg"
 width="200.000000pt" height="200.000000pt" viewBox="0 0 200.000000 200.000000"
 preserveAspectRatio="xMidYMid meet">

<g transform="translate(0.000000,200.000000) scale(0.100000,-0.100000)"
fill="#000000" stroke="none">
<path d="M890 1802 c-43 -44 -36 -105 16 -133 24 -12 25 -16 22 -113 l-3 -99
-40 -14 c-97 -32 -164 -127 -173 -245 -6 -81 -6 -81 -120 -42 -92 30 -202 88
-292 153 -91 66 -97 69 -73 35 84 -115 202 -233 282 -280 17 -10 31 -22 31
-26 0 -4 -51 -8 -113 -8 l-113 0 -22 29 c-27 37 -71 47 -111 27 -36 -19 -39
-29 -39 -134 0 -69 3 -87 19 -103 40 -40 112 -30 134 19 l10 22 240 -2 240 -3
13 -60 c7 -36 10 -89 7 -132 l-6 -73 66 0 65 0 0 -141 0 -140 -35 -33 c-38
-36 -43 -62 -20 -106 18 -35 28 -38 133 -38 69 0 87 3 103 19 40 40 30 112
-19 134 -21 9 -22 14 -22 157 l0 148 65 0 66 0 -6 73 c-3 43 0 96 7 132 l13
60 235 3 234 2 23 -29 c38 -48 104 -50 139 -2 7 8 12 53 12 101 0 48 -5 93
-12 101 -35 48 -101 46 -139 -2 l-23 -30 -119 3 -118 3 54 36 c96 64 181 151
283 288 14 20 0 11 -84 -50 -90 -65 -200 -123 -292 -153 -114 -39 -114 -39
-120 42 -9 118 -76 213 -173 245 l-40 14 -3 99 c-3 98 -2 101 22 113 53 29 57
103 8 142 -20 15 -35 19 -57 14 -38 -7 -52 -7 -92 1 -27 5 -37 1 -63 -24z m90
-32 l20 -20 20 20 c25 25 42 25 65 0 15 -16 16 -25 7 -44 -6 -14 -21 -26 -34
-28 -22 -3 -23 -6 -26 -120 l-3 -118 -29 0 -30 0 0 120 0 120 -25 0 c-37 0
-55 42 -30 70 23 25 40 25 65 0z m115 -361 c52 -14 126 -90 143 -145 6 -23 12
-66 12 -96 l0 -55 -61 -7 c-34 -3 -83 -6 -109 -6 -40 0 -48 4 -58 25 -6 14
-16 25 -22 25 -6 0 -16 -11 -22 -25 -10 -21 -18 -25 -58 -25 -26 0 -75 3 -109
6 l-61 7 0 55 c0 30 5 73 12 95 16 53 83 125 133 142 48 17 145 19 200 4z
m-458 -309 c119 -30 204 -40 363 -40 214 0 370 28 506 90 36 16 62 25 59 20
-13 -21 -136 -102 -206 -135 -122 -57 -215 -78 -359 -78 -144 0 -237 21 -359
78 -70 33 -193 114 -206 135 -3 5 23 -4 59 -20 35 -16 100 -38 143 -50z m-385
-57 c10 -9 18 -24 18 -35 0 -17 12 -18 183 -18 163 0 188 -2 245 -22 34 -13
62 -26 62 -30 0 -5 -112 -8 -249 -8 -234 0 -249 -1 -244 -18 2 -10 -5 -26 -16
-36 -18 -16 -25 -17 -46 -8 -29 14 -33 47 -8 74 15 17 15 19 0 36 -22 24 -22
58 1 71 24 14 33 13 54 -6z m1549 7 c23 -13 25 -47 2 -72 -15 -17 -15 -19 0
-36 25 -27 21 -60 -8 -74 -21 -9 -28 -8 -45 7 -11 10 -20 26 -20 37 0 17 -14
18 -252 18 -139 0 -248 4 -242 8 5 5 35 18 67 30 53 20 79 22 248 22 165 0
188 2 182 15 -5 16 22 55 39 55 5 0 18 -5 29 -10z m-951 -136 c0 -14 -3 -14
-15 -4 -8 7 -15 14 -15 16 0 2 7 4 15 4 8 0 15 -7 15 -16z m310 1 c-7 -9 -15
-13 -17 -11 -7 7 7 26 19 26 6 0 6 -6 -2 -15z m-230 -20 c0 -15 -6 -25 -14
-25 -28 0 -46 12 -46 31 0 14 7 19 30 19 25 0 30 -4 30 -25z m196 13 c8 -12
-21 -38 -43 -38 -7 0 -13 11 -13 25 0 20 5 25 24 25 14 0 28 -5 32 -12z m-76
-22 c0 -18 -6 -25 -27 -27 -52 -7 -73 0 -73 27 0 22 4 24 50 24 46 0 50 -2 50
-24z m110 -76 c-5 -29 -10 -75 -10 -101 l0 -49 -149 0 -148 0 -6 83 c-3 45 -9
90 -12 99 -6 15 -1 15 46 -3 75 -29 177 -27 238 3 25 13 47 23 49 22 1 0 -2
-25 -8 -54z m-130 -359 c0 -158 1 -169 18 -164 10 2 26 -5 36 -16 16 -18 17
-25 8 -46 -14 -29 -47 -33 -74 -8 -17 15 -19 15 -36 0 -27 -25 -60 -21 -74 8
-9 21 -8 28 7 45 10 11 26 20 37 20 17 0 18 11 18 165 l0 165 30 0 30 0 0
-169z"/>
<path d="M780 1202 c0 -5 11 -19 24 -31 18 -17 36 -23 65 -23 44 1 96 21 55
22 -11 0 -47 9 -79 20 -67 23 -65 23 -65 12z"/>
<path d="M1155 1190 c-27 -10 -61 -19 -75 -20 -22 0 -23 -2 -7 -11 33 -19 96
-13 123 12 24 22 31 40 17 38 -5 0 -30 -9 -58 -19z"/>
</g>
</svg>
